<svg width="143" height="130" viewBox="0 0 143 130" fill="none" xmlns="http://www.w3.org/2000/svg">
<path d="M79.8499 0.120075C79.5743 0.1032 79.3371 0.312959 79.3203 0.588586C79.3034 0.864212 79.5132 1.10133 79.7888 1.11821L79.8499 0.120075ZM92.5416 5.11914L92.3179 5.56635L92.5416 5.11914ZM115.514 23.9525L115.107 24.2429L115.514 23.9525ZM127.514 54.7025L128.009 54.7695L127.514 54.7025ZM124.319 65.008L124.792 65.1719L124.319 65.008ZM120.097 78.3969L120.514 78.6732L120.097 78.3969ZM99.986 81.5636L99.8475 82.044L99.986 81.5636ZM69.5416 67.258L69.8151 66.8395L69.5416 67.258ZM65.6527 58.8414L66.0062 59.1949L65.6527 58.8414ZM71.0138 57.8969L71.0967 57.4038L71.0138 57.8969ZM90.7916 65.258L90.5723 65.7074L90.7916 65.258ZM132.542 93.3136L132.167 93.6445L132.542 93.3136ZM140.597 107.119L141.07 106.957L140.597 107.119ZM140.542 121.119L140.164 120.791L140.542 121.119ZM133.292 125.258L133.53 125.698L133.292 125.258ZM122.708 129.286L122.672 128.787L122.708 129.286ZM99.3471 126.23L99.4548 125.742L99.3471 126.23ZM69.0693 117.425L68.8986 117.895L69.0693 117.425ZM35.7082 108.73L35.6527 109.227L35.7082 108.73ZM12.5416 106.341L12.6433 105.852L12.5416 106.341ZM6.81934 106.341L6.87308 106.838L6.81934 106.341ZM0.465783 107.266C0.27052 107.461 0.27052 107.777 0.465783 107.973L3.64776 111.155C3.84303 111.35 4.15961 111.35 4.35487 111.155C4.55013 110.959 4.55013 110.643 4.35487 110.448L1.52644 107.619L4.35487 104.791C4.55013 104.595 4.55013 104.279 4.35487 104.084C4.15961 103.888 3.84303 103.888 3.64776 104.084L0.465783 107.266ZM2.44541 107.956C2.7163 107.902 2.89245 107.639 2.83885 107.368C2.78525 107.097 2.5222 106.921 2.25131 106.975L2.44541 107.956ZM5.1813 106.144C4.91424 106.215 4.7547 106.488 4.82494 106.755C4.89519 107.022 5.16862 107.182 5.43568 107.111L5.1813 106.144ZM8.28539 106.708C8.5608 106.688 8.76768 106.449 8.74749 106.173C8.7273 105.898 8.48767 105.691 8.21227 105.711L8.28539 106.708ZM11.1484 105.664C10.8727 105.647 10.6358 105.857 10.6192 106.133C10.6025 106.409 10.8125 106.646 11.0882 106.662L11.1484 105.664ZM18.2333 107.759C18.5075 107.791 18.7564 107.596 18.7893 107.322C18.8222 107.048 18.6265 106.799 18.3524 106.766L18.2333 107.759ZM29.9412 107.717C29.6658 107.697 29.4263 107.904 29.4063 108.18C29.3864 108.455 29.5934 108.695 29.8689 108.715L29.9412 107.717ZM39.9119 109.8C40.1847 109.843 40.4405 109.657 40.4834 109.384C40.5263 109.111 40.3399 108.855 40.0671 108.812L39.9119 109.8ZM48.5772 110.508C48.3087 110.443 48.0388 110.609 47.9746 110.878C47.9103 111.146 48.0759 111.416 48.3445 111.48L48.5772 110.508ZM56.6477 113.752C56.9118 113.832 57.1912 113.683 57.2717 113.419C57.3523 113.155 57.2034 112.876 56.9393 112.795L56.6477 113.752ZM65.1654 115.501C64.9047 115.41 64.6195 115.547 64.5284 115.808C64.4374 116.069 64.5748 116.354 64.8355 116.445L65.1654 115.501ZM72.6243 119.214C72.8853 119.304 73.17 119.166 73.2601 118.905C73.3501 118.643 73.2115 118.359 72.9505 118.269L72.6243 119.214ZM80.4328 120.715C80.1689 120.634 79.889 120.782 79.8075 121.045C79.726 121.309 79.8738 121.589 80.1376 121.671L80.4328 120.715ZM87.7277 123.879C87.9941 123.952 88.269 123.795 88.3418 123.529C88.4145 123.262 88.2576 122.987 87.9912 122.915L87.7277 123.879ZM95.6181 124.863C95.3495 124.799 95.0799 124.965 95.016 125.233C94.9521 125.502 95.1181 125.772 95.3867 125.836L95.6181 124.863ZM105.019 127.986C105.289 128.043 105.554 127.87 105.611 127.6C105.668 127.33 105.495 127.064 105.225 127.007L105.019 127.986ZM116.834 128.781C116.559 128.762 116.321 128.971 116.302 129.246C116.284 129.522 116.492 129.76 116.768 129.778L116.834 128.781ZM125.649 129.302C125.916 129.232 126.076 128.959 126.006 128.692C125.937 128.425 125.664 128.265 125.396 128.335L125.649 129.302ZM130.547 126.182C130.304 126.312 130.211 126.614 130.341 126.858C130.47 127.102 130.773 127.194 131.017 127.065L130.547 126.182ZM135.391 124.811C135.643 124.699 135.757 124.404 135.646 124.151C135.534 123.899 135.239 123.785 134.986 123.896L135.391 124.811ZM138.67 122.057C138.439 122.208 138.375 122.518 138.526 122.749C138.677 122.98 138.987 123.045 139.218 122.894L138.67 122.057ZM142.619 117.971C142.679 117.701 142.508 117.435 142.238 117.375C141.969 117.316 141.702 117.486 141.643 117.756L142.619 117.971ZM141.179 110.744C141.248 111.011 141.52 111.173 141.787 111.104C142.055 111.036 142.217 110.764 142.148 110.496L141.179 110.744ZM139.566 103.175C139.452 102.924 139.155 102.813 138.904 102.928C138.653 103.043 138.542 103.339 138.657 103.59L139.566 103.175ZM134.654 96.743C134.817 96.9664 135.13 97.0158 135.353 96.8534C135.576 96.6911 135.626 96.3784 135.463 96.155L134.654 96.743ZM130.004 89.8877C129.809 89.6925 129.492 89.6926 129.297 89.8879C129.102 90.0832 129.102 90.3997 129.297 90.595L130.004 89.8877ZM123.052 85.0041C123.267 85.1775 123.582 85.144 123.755 84.9291C123.929 84.7143 123.895 84.3995 123.68 84.226L123.052 85.0041ZM116.861 79.1903C116.632 79.0352 116.321 79.0946 116.166 79.3231C116.011 79.5516 116.07 79.8625 116.299 80.0176L116.861 79.1903ZM109.193 75.5264C109.43 75.667 109.737 75.5882 109.878 75.3505C110.018 75.1128 109.939 74.8062 109.702 74.6656L109.193 75.5264ZM102.32 70.533C102.076 70.4032 101.773 70.4955 101.643 70.7392C101.513 70.9829 101.606 71.2857 101.849 71.4156L102.32 70.533ZM94.3538 67.5687C94.601 67.6917 94.9012 67.5909 95.0241 67.3437C95.1471 67.0964 95.0464 66.7963 94.7992 66.6733L94.3538 67.5687ZM86.2232 62.5225C85.9724 62.4069 85.6754 62.5165 85.5598 62.7673C85.4443 63.0181 85.5539 63.3151 85.8047 63.4307L86.2232 62.5225ZM76.0178 59.5973C76.2823 59.6769 76.5611 59.527 76.6407 59.2626C76.7203 58.9982 76.5704 58.7193 76.306 58.6397L76.0178 59.5973ZM69.6476 57.2162C69.3723 57.1947 69.1316 57.4004 69.1101 57.6757C69.0886 57.951 69.2944 58.1917 69.5697 58.2132L69.6476 57.2162ZM67.017 58.5156C67.2712 58.4077 67.3898 58.1142 67.282 57.86C67.1741 57.6058 66.8806 57.4872 66.6264 57.595L67.017 58.5156ZM64.0626 61.234C64.0653 61.5102 64.2914 61.7318 64.5675 61.7291C64.8436 61.7264 65.0653 61.5004 65.0626 61.2242L64.0626 61.234ZM67.6986 65.2742C67.4883 65.0953 67.1728 65.1207 66.9938 65.3311C66.8149 65.5414 66.8403 65.8569 67.0506 66.0359L67.6986 65.2742ZM72.8556 69.9297C73.092 70.0725 73.3993 69.9966 73.5421 69.7602C73.6848 69.5238 73.6089 69.2164 73.3725 69.0737L72.8556 69.9297ZM80.7076 73.1755C80.4623 73.0487 80.1607 73.1448 80.0339 73.3901C79.9071 73.6354 80.0032 73.9371 80.2485 74.0638L80.7076 73.1755ZM87.9002 77.6985C88.1535 77.8083 88.4479 77.6919 88.5577 77.4385C88.6675 77.1851 88.5511 76.8907 88.2978 76.7809L87.9002 77.6985ZM96.1246 79.8212C95.8633 79.7319 95.5791 79.8714 95.4898 80.1327C95.4006 80.394 95.54 80.6782 95.8014 80.7675L96.1246 79.8212ZM105.215 83.179C105.489 83.2161 105.74 83.0243 105.778 82.7507C105.815 82.4771 105.623 82.2252 105.349 82.1881L105.215 83.179ZM115.757 81.3123C115.504 81.4218 115.387 81.716 115.497 81.9696C115.606 82.2231 115.9 82.3398 116.154 82.2304L115.757 81.3123ZM122.096 75.3965C122.188 75.1363 122.052 74.8505 121.792 74.7581C121.531 74.6657 121.246 74.8018 121.153 75.062L122.096 75.3965ZM122.893 68.2906C122.83 68.5595 122.997 68.8284 123.266 68.8911C123.535 68.9538 123.804 68.7866 123.867 68.5177L122.893 68.2906ZM125.715 62.6448C125.812 62.3862 125.681 62.098 125.422 62.0011C125.164 61.9043 124.876 62.0354 124.779 62.294L125.715 62.6448ZM126.491 57.2211C126.42 57.488 126.579 57.7617 126.846 57.8326C127.113 57.9034 127.387 57.7444 127.458 57.4775L126.491 57.2211ZM128.15 50.4592C128.132 50.1836 127.895 49.9743 127.619 49.9917C127.343 50.0092 127.134 50.2467 127.152 50.5223L128.15 50.4592ZM125.389 42.4356C125.482 42.6959 125.767 42.832 126.028 42.7397C126.288 42.6474 126.424 42.3616 126.332 42.1014L125.389 42.4356ZM122.794 34.3578C122.661 34.1157 122.357 34.0271 122.115 34.16C121.873 34.2928 121.784 34.5968 121.917 34.8389L122.794 34.3578ZM117.51 27.6951C117.665 27.924 117.976 27.9841 118.205 27.8295C118.433 27.6749 118.494 27.3641 118.339 27.1353L117.51 27.6951ZM113.624 20.6521C113.449 20.4383 113.134 20.4065 112.92 20.5811C112.706 20.7558 112.675 21.0708 112.849 21.2847L113.624 20.6521ZM107.759 15.8715C107.962 16.0588 108.279 16.046 108.466 15.8431C108.653 15.6401 108.64 15.3238 108.437 15.1365L107.759 15.8715ZM102.534 10.4001C102.308 10.2418 101.996 10.297 101.838 10.5233C101.679 10.7496 101.734 11.0613 101.961 11.2196L102.534 10.4001ZM95.6249 7.30005C95.8668 7.4333 96.1709 7.34526 96.3041 7.1034C96.4374 6.86153 96.3493 6.55744 96.1075 6.42418L95.6249 7.30005ZM89.7181 3.15205C89.4697 3.03143 89.1706 3.13501 89.0499 3.38342C88.9293 3.63182 89.0329 3.93098 89.2813 4.0516L89.7181 3.15205ZM83.0504 1.63394C83.3182 1.70122 83.5899 1.53865 83.6572 1.27083C83.7244 1.00301 83.5619 0.731359 83.294 0.664079L83.0504 1.63394ZM0.819336 108.119C1.40793 108.119 1.94249 108.055 2.44541 107.956L2.25131 106.975C1.80261 107.064 1.33356 107.119 0.819336 107.119V108.119ZM5.43568 107.111C5.88935 106.992 6.36003 106.894 6.87308 106.838L6.76559 105.844C6.19095 105.906 5.66988 106.016 5.1813 106.144L5.43568 107.111ZM6.87308 106.838C7.31166 106.791 7.78934 106.745 8.28539 106.708L8.21227 105.711C7.70165 105.749 7.21204 105.796 6.76559 105.844L6.87308 106.838ZM11.0882 106.662C11.5728 106.691 12.0293 106.746 12.4398 106.831L12.6433 105.852C12.1734 105.754 11.6669 105.695 11.1484 105.664L11.0882 106.662ZM12.4398 106.831C14.3649 107.231 16.2977 107.527 18.2333 107.759L18.3524 106.766C16.4379 106.536 14.5342 106.245 12.6433 105.852L12.4398 106.831ZM29.8689 108.715C31.8022 108.855 33.7304 109.012 35.6527 109.227L35.7637 108.233C33.8226 108.017 31.8797 107.858 29.9412 107.717L29.8689 108.715ZM35.6527 109.227C37.0859 109.387 38.5048 109.579 39.9119 109.8L40.0671 108.812C38.6459 108.589 37.2122 108.395 35.7637 108.233L35.6527 109.227ZM48.3445 111.48C51.1356 112.148 53.8968 112.913 56.6477 113.752L56.9393 112.795C54.1722 111.952 51.3912 111.181 48.5772 110.508L48.3445 111.48ZM64.8355 116.445C66.187 116.917 67.5406 117.401 68.8986 117.895L69.24 116.955C67.879 116.46 66.5215 115.975 65.1654 115.501L64.8355 116.445ZM68.8986 117.895C70.1382 118.345 71.3801 118.785 72.6243 119.214L72.9505 118.269C71.7114 117.841 70.4746 117.403 69.24 116.955L68.8986 117.895ZM80.1376 121.671C82.6556 122.449 85.1851 123.185 87.7277 123.879L87.9912 122.915C85.4592 122.223 82.9403 121.49 80.4328 120.715L80.1376 121.671ZM95.3867 125.836C96.6672 126.14 97.9514 126.435 99.2394 126.719L99.4548 125.742C98.1721 125.459 96.8933 125.166 95.6181 124.863L95.3867 125.836ZM99.2394 126.719C101.127 127.135 103.063 127.573 105.019 127.986L105.225 127.007C103.275 126.596 101.35 126.16 99.4548 125.742L99.2394 126.719ZM116.768 129.778C118.767 129.912 120.765 129.93 122.745 129.784L122.672 128.787C120.746 128.929 118.796 128.912 116.834 128.781L116.768 129.778ZM122.745 129.784C123.775 129.709 124.735 129.541 125.649 129.302L125.396 128.335C124.539 128.559 123.638 128.716 122.672 128.787L122.745 129.784ZM131.017 127.065C131.839 126.628 132.679 126.159 133.53 125.698L133.053 124.818C132.184 125.289 131.368 125.745 130.547 126.182L131.017 127.065ZM133.53 125.698C134.094 125.392 134.724 125.106 135.391 124.811L134.986 123.896C134.319 124.192 133.657 124.492 133.053 124.818L133.53 125.698ZM139.218 122.894C139.846 122.482 140.431 122.01 140.919 121.447L140.164 120.791C139.752 121.266 139.245 121.681 138.67 122.057L139.218 122.894ZM140.919 121.447C141.809 120.422 142.341 119.232 142.619 117.971L141.643 117.756C141.395 118.881 140.928 119.912 140.164 120.791L140.919 121.447ZM142.148 110.496C141.823 109.222 141.431 108.015 141.07 106.957L140.124 107.281C140.482 108.328 140.864 109.507 141.179 110.744L142.148 110.496ZM141.07 106.957C140.627 105.662 140.126 104.401 139.566 103.175L138.657 103.59C139.202 104.786 139.692 106.016 140.124 107.281L141.07 106.957ZM135.463 96.155C134.671 95.0651 133.822 94.008 132.916 92.9826L132.167 93.6445C133.052 94.6468 133.881 95.6793 134.654 96.743L135.463 96.155ZM132.916 92.9826C131.98 91.9218 131.008 90.8908 130.004 89.8877L129.297 90.595C130.287 91.5841 131.244 92.6 132.167 93.6445L132.916 92.9826ZM123.68 84.226C121.49 82.4578 119.207 80.7837 116.861 79.1903L116.299 80.0176C118.626 81.5975 120.886 83.2553 123.052 85.0041L123.68 84.226ZM109.702 74.6656C107.268 73.2262 104.797 71.853 102.32 70.533L101.849 71.4156C104.317 72.7301 106.774 74.096 109.193 75.5264L109.702 74.6656ZM94.7992 66.6733C93.5297 66.0419 92.2656 65.4209 91.0108 64.8087L90.5723 65.7074C91.8255 66.3188 93.0872 66.9387 94.3538 67.5687L94.7992 66.6733ZM91.0108 64.8087C89.4481 64.0462 87.8496 63.2721 86.2232 62.5225L85.8047 63.4307C87.4204 64.1754 89.0106 64.9454 90.5723 65.7074L91.0108 64.8087ZM76.306 58.6397C74.5875 58.1226 72.8491 57.6986 71.0967 57.4038L70.9308 58.39C72.6355 58.6768 74.3328 59.0903 76.0178 59.5973L76.306 58.6397ZM71.0967 57.4038C70.6361 57.3264 70.1462 57.2551 69.6476 57.2162L69.5697 58.2132C70.0266 58.2488 70.4841 58.3148 70.9308 58.39L71.0967 57.4038ZM66.6264 57.595C66.1494 57.7974 65.7 58.087 65.2991 58.4878L66.0062 59.1949C66.3104 58.8907 66.6504 58.6711 67.017 58.5156L66.6264 57.595ZM65.2991 58.4878C64.4342 59.3527 64.0533 60.2852 64.0626 61.234L65.0626 61.2242C65.0563 60.5807 65.3036 59.8976 66.0062 59.1949L65.2991 58.4878ZM67.0506 66.0359C67.8322 66.7009 68.6346 67.2627 69.268 67.6766L69.8151 66.8395C69.2025 66.4392 68.4374 65.9028 67.6986 65.2742L67.0506 66.0359ZM69.268 67.6766C70.4305 68.4362 71.6284 69.1887 72.8556 69.9297L73.3725 69.0737C72.1552 68.3386 70.9673 67.5924 69.8151 66.8395L69.268 67.6766ZM80.2485 74.0638C82.7513 75.3572 85.3163 76.5788 87.9002 77.6985L88.2978 76.7809C85.7356 75.6707 83.1911 74.4589 80.7076 73.1755L80.2485 74.0638ZM95.8014 80.7675C97.1588 81.2313 98.5096 81.6583 99.8475 82.044L100.125 81.0832C98.8032 80.7022 97.4678 80.2801 96.1246 79.8212L95.8014 80.7675ZM99.8475 82.044C101.405 82.4933 103.256 82.9135 105.215 83.179L105.349 82.1881C103.444 81.9299 101.642 81.5206 100.125 81.0832L99.8475 82.044ZM116.154 82.2304C117.89 81.4806 119.41 80.3373 120.514 78.6732L119.68 78.1206C118.701 79.5984 117.345 80.6268 115.757 81.3123L116.154 82.2304ZM120.514 78.6732C121.175 77.6768 121.682 76.5628 122.096 75.3965L121.153 75.062C120.757 76.1777 120.283 77.2121 119.68 78.1206L120.514 78.6732ZM123.867 68.5177C124.142 67.3364 124.433 66.207 124.792 65.1719L123.847 64.8441C123.47 65.9295 123.17 67.0997 122.893 68.2906L123.867 68.5177ZM124.792 65.1719C125.083 64.3326 125.397 63.4934 125.715 62.6448L124.779 62.294C124.462 63.1405 124.143 63.9913 123.847 64.8441L124.792 65.1719ZM127.458 57.4775C127.693 56.5904 127.885 55.6887 128.009 54.7695L127.018 54.6354C126.901 55.5055 126.718 56.3658 126.491 57.2211L127.458 57.4775ZM128.009 54.7695C128.202 53.3424 128.241 51.9022 128.15 50.4592L127.152 50.5223C127.239 51.9057 127.202 53.2796 127.018 54.6354L128.009 54.7695ZM126.332 42.1014C125.392 39.4514 124.161 36.8495 122.794 34.3578L121.917 34.8389C123.266 37.2967 124.472 39.8487 125.389 42.4356L126.332 42.1014ZM118.339 27.1353C117.521 25.9239 116.706 24.7627 115.921 23.6621L115.107 24.2429C115.889 25.339 116.698 26.4929 117.51 27.6951L118.339 27.1353ZM115.921 23.6621C115.173 22.6135 114.407 21.6116 113.624 20.6521L112.849 21.2847C113.619 22.227 114.371 23.2116 115.107 24.2429L115.921 23.6621ZM108.437 15.1365C106.572 13.416 104.609 11.8516 102.534 10.4001L101.961 11.2196C104.002 12.6472 105.93 14.1836 107.759 15.8715L108.437 15.1365ZM96.1075 6.42418C95.0217 5.82595 93.908 5.24337 92.7652 4.67193L92.3179 5.56635C93.4501 6.13243 94.5519 6.70884 95.6249 7.30005L96.1075 6.42418ZM92.7652 4.67193C91.7525 4.16559 90.7355 3.6461 89.7181 3.15205L89.2813 4.0516C90.292 4.54238 91.2947 5.05471 92.3179 5.56635L92.7652 4.67193ZM83.294 0.664079C82.1838 0.385164 81.0396 0.192916 79.8499 0.120075L79.7888 1.11821C80.9098 1.18684 81.9926 1.36822 83.0504 1.63394L83.294 0.664079Z" fill="#76C1A7"/>
</svg>
