<svg width="454" height="272" viewBox="0 0 454 272" fill="none" xmlns="http://www.w3.org/2000/svg">
<path d="M254.985 257.101H432.798C443.844 257.101 452.798 248.146 452.798 237.101V183.665C452.798 179.249 451.337 174.957 448.642 171.458L435.379 154.245C429.752 146.941 429.847 136.736 435.61 129.538L448.411 113.551C451.251 110.003 452.798 105.595 452.798 101.051V27.1006C452.798 16.0549 443.844 7.10059 432.798 7.10059H366.928C362.03 7.10059 357.302 8.89816 353.641 12.1524L333.261 30.2675C329.6 33.5217 324.872 35.3193 319.974 35.3193H254.985C243.94 35.3193 234.985 44.2736 234.985 55.3193V237.101C234.985 248.146 243.94 257.101 254.985 257.101Z" fill="#CEFFEE" stroke="white"/>
<path d="M135.938 257.101H313.751C324.797 257.101 333.751 248.146 333.751 237.101V183.771C333.751 179.29 332.246 174.938 329.477 171.415L315.889 154.12C310.046 146.683 310.211 136.17 316.284 128.92L329.082 113.644C332.098 110.044 333.751 105.497 333.751 100.8V27.1006C333.751 16.0549 324.797 7.10059 313.751 7.10059H247.881C242.982 7.10059 238.254 8.89816 234.593 12.1524L214.214 30.2675C210.553 33.5217 205.825 35.3193 200.927 35.3193H135.938C124.892 35.3193 115.938 44.2736 115.938 55.3193V237.101C115.938 248.146 124.892 257.101 135.938 257.101Z" fill="#B4CEC5" stroke="white"/>
<g filter="url(#filter0_d_1_861)">
<path d="M27.0313 257.101H204.844C215.89 257.101 224.844 248.146 224.844 237.101V183.44C224.844 179.162 223.473 174.997 220.931 171.556L208.324 154.49C203.133 147.463 203.104 137.88 208.252 130.822L221.003 113.337C223.499 109.915 224.844 105.788 224.844 101.552V27.1006C224.844 16.0549 215.89 7.10059 204.844 7.10059H138.974C134.076 7.10059 129.348 8.89816 125.687 12.1524L105.307 30.2675C101.646 33.5217 96.9181 35.3193 92.0198 35.3193H27.0312C15.9856 35.3193 7.03125 44.2736 7.03125 55.3193V237.101C7.03125 248.146 15.9856 257.101 27.0313 257.101Z" fill="#76C1A7"/>
<path d="M27.0313 257.101H204.844C215.89 257.101 224.844 248.146 224.844 237.101V183.44C224.844 179.162 223.473 174.997 220.931 171.556L208.324 154.49C203.133 147.463 203.104 137.88 208.252 130.822L221.003 113.337C223.499 109.915 224.844 105.788 224.844 101.552V27.1006C224.844 16.0549 215.89 7.10059 204.844 7.10059H138.974C134.076 7.10059 129.348 8.89816 125.687 12.1524L105.307 30.2675C101.646 33.5217 96.9181 35.3193 92.0198 35.3193H27.0312C15.9856 35.3193 7.03125 44.2736 7.03125 55.3193V237.101C7.03125 248.146 15.9856 257.101 27.0313 257.101Z" stroke="white"/>
</g>
<path d="M143.44 39.9539C142.154 39.9539 141.05 39.6283 140.128 38.9773C139.211 38.321 138.506 37.3757 138.011 36.1414C137.521 34.9018 137.276 33.4096 137.276 31.6648C137.282 29.92 137.529 28.4356 138.019 27.2117C138.513 25.9825 139.219 25.045 140.136 24.3992C141.058 23.7533 142.159 23.4304 143.44 23.4304C144.722 23.4304 145.823 23.7533 146.745 24.3992C147.667 25.045 148.373 25.9825 148.862 27.2117C149.357 28.4408 149.604 29.9252 149.604 31.6648C149.604 33.4148 149.357 34.9096 148.862 36.1492C148.373 37.3835 147.667 38.3263 146.745 38.9773C145.828 39.6283 144.727 39.9539 143.44 39.9539ZM143.44 37.5085C144.44 37.5085 145.229 37.0164 145.808 36.032C146.391 35.0424 146.683 33.5867 146.683 31.6648C146.683 30.394 146.55 29.3263 146.284 28.4617C146.019 27.5971 145.644 26.946 145.159 26.5085C144.675 26.0658 144.102 25.8445 143.44 25.8445C142.446 25.8445 141.659 26.3393 141.081 27.3289C140.503 28.3132 140.211 29.7585 140.206 31.6648C140.201 32.9408 140.328 34.0138 140.589 34.8835C140.854 35.7533 141.229 36.4096 141.714 36.8523C142.198 37.2898 142.774 37.5085 143.44 37.5085ZM158.708 23.6492V39.6492H155.81V26.4695H155.716L151.974 28.8601V26.2039L155.95 23.6492H158.708ZM170.075 30.4851V32.8132H162.872V30.4851H170.075ZM178.933 39.9539C177.646 39.9539 176.542 39.6283 175.62 38.9773C174.703 38.321 173.998 37.3757 173.503 36.1414C173.013 34.9018 172.769 33.4096 172.769 31.6648C172.774 29.92 173.021 28.4356 173.511 27.2117C174.006 25.9825 174.711 25.045 175.628 24.3992C176.55 23.7533 177.651 23.4304 178.933 23.4304C180.214 23.4304 181.315 23.7533 182.237 24.3992C183.159 25.045 183.865 25.9825 184.354 27.2117C184.849 28.4408 185.097 29.9252 185.097 31.6648C185.097 33.4148 184.849 34.9096 184.354 36.1492C183.865 37.3835 183.159 38.3263 182.237 38.9773C181.321 39.6283 180.219 39.9539 178.933 39.9539ZM178.933 37.5085C179.933 37.5085 180.722 37.0164 181.3 36.032C181.883 35.0424 182.175 33.5867 182.175 31.6648C182.175 30.394 182.042 29.3263 181.776 28.4617C181.511 27.5971 181.136 26.946 180.651 26.5085C180.167 26.0658 179.594 25.8445 178.933 25.8445C177.938 25.8445 177.151 26.3393 176.573 27.3289C175.995 28.3132 175.703 29.7585 175.698 31.6648C175.693 32.9408 175.821 34.0138 176.081 34.8835C176.347 35.7533 176.722 36.4096 177.206 36.8523C177.69 37.2898 178.266 37.5085 178.933 37.5085ZM193.435 39.8679C192.31 39.8679 191.31 39.6752 190.435 39.2898C189.565 38.9044 188.877 38.3679 188.372 37.6804C187.867 36.9929 187.599 36.1986 187.567 35.2976H190.505C190.531 35.7299 190.674 36.1075 190.935 36.4304C191.195 36.7481 191.541 36.9955 191.974 37.1726C192.406 37.3497 192.89 37.4382 193.427 37.4382C194 37.4382 194.507 37.3393 194.95 37.1414C195.393 36.9382 195.739 36.657 195.989 36.2976C196.239 35.9382 196.362 35.5242 196.356 35.0554C196.362 34.571 196.237 34.144 195.981 33.7742C195.726 33.4044 195.356 33.1153 194.872 32.907C194.393 32.6986 193.815 32.5945 193.138 32.5945H191.724V30.3601H193.138C193.695 30.3601 194.182 30.2638 194.599 30.071C195.02 29.8783 195.351 29.6075 195.591 29.2585C195.83 28.9044 195.948 28.4955 195.942 28.032C195.948 27.5789 195.846 27.1856 195.638 26.8523C195.435 26.5138 195.145 26.2507 194.77 26.0632C194.401 25.8757 193.966 25.782 193.466 25.782C192.976 25.782 192.523 25.8705 192.106 26.0476C191.69 26.2247 191.354 26.4773 191.099 26.8054C190.843 27.1283 190.708 27.5138 190.692 27.9617H187.903C187.924 27.0658 188.182 26.2794 188.677 25.6023C189.177 24.92 189.843 24.3888 190.677 24.0085C191.51 23.6231 192.445 23.4304 193.481 23.4304C194.549 23.4304 195.476 23.6309 196.263 24.032C197.054 24.4278 197.666 24.9617 198.099 25.6335C198.531 26.3054 198.747 27.0476 198.747 27.8601C198.752 28.7611 198.487 29.5164 197.95 30.1257C197.419 30.7351 196.721 31.1335 195.856 31.321V31.446C196.981 31.6023 197.843 32.019 198.442 32.696C199.047 33.3679 199.346 34.2039 199.341 35.2039C199.341 36.0997 199.086 36.9018 198.575 37.6101C198.07 38.3132 197.372 38.8653 196.481 39.2664C195.596 39.6674 194.58 39.8679 193.435 39.8679Z" fill="white"/>
<path d="M253.446 39.9539C252.159 39.9539 251.055 39.6283 250.133 38.9773C249.217 38.321 248.511 37.3757 248.016 36.1414C247.527 34.9018 247.282 33.4096 247.282 31.6648C247.287 29.92 247.534 28.4356 248.024 27.2117C248.519 25.9825 249.224 25.045 250.141 24.3992C251.063 23.7533 252.165 23.4304 253.446 23.4304C254.727 23.4304 255.829 23.7533 256.75 24.3992C257.672 25.045 258.378 25.9825 258.868 27.2117C259.362 28.4408 259.61 29.9252 259.61 31.6648C259.61 33.4148 259.362 34.9096 258.868 36.1492C258.378 37.3835 257.672 38.3263 256.75 38.9773C255.834 39.6283 254.732 39.9539 253.446 39.9539ZM253.446 37.5085C254.446 37.5085 255.235 37.0164 255.813 36.032C256.396 35.0424 256.688 33.5867 256.688 31.6648C256.688 30.394 256.555 29.3263 256.29 28.4617C256.024 27.5971 255.649 26.946 255.165 26.5085C254.68 26.0658 254.107 25.8445 253.446 25.8445C252.451 25.8445 251.665 26.3393 251.086 27.3289C250.508 28.3132 250.217 29.7585 250.211 31.6648C250.206 32.9408 250.334 34.0138 250.594 34.8835C250.86 35.7533 251.235 36.4096 251.719 36.8523C252.204 37.2898 252.779 37.5085 253.446 37.5085ZM262.206 39.6492V37.5554L267.76 32.1101C268.291 31.5736 268.734 31.0971 269.088 30.6804C269.443 30.2638 269.708 29.8601 269.885 29.4695C270.062 29.0789 270.151 28.6622 270.151 28.2195C270.151 27.7143 270.036 27.282 269.807 26.9226C269.578 26.558 269.263 26.2768 268.862 26.0789C268.461 25.8809 268.005 25.782 267.495 25.782C266.969 25.782 266.508 25.8914 266.112 26.1101C265.716 26.3236 265.409 26.6283 265.19 27.0242C264.976 27.42 264.87 27.8914 264.87 28.4382H262.112C262.112 27.4226 262.344 26.5398 262.807 25.7898C263.271 25.0398 263.909 24.4591 264.721 24.0476C265.539 23.6361 266.476 23.4304 267.534 23.4304C268.607 23.4304 269.549 23.6309 270.362 24.032C271.174 24.433 271.805 24.9825 272.252 25.6804C272.706 26.3783 272.932 27.1752 272.932 28.071C272.932 28.67 272.818 29.2585 272.588 29.8367C272.359 30.4148 271.956 31.0554 271.377 31.7585C270.805 32.4617 270 33.3132 268.963 34.3132L266.206 37.1179V37.2273H273.174V39.6492H262.206ZM283.174 30.4851V32.8132H275.971V30.4851H283.174ZM292.032 39.9539C290.745 39.9539 289.641 39.6283 288.719 38.9773C287.803 38.321 287.097 37.3757 286.602 36.1414C286.112 34.9018 285.868 33.4096 285.868 31.6648C285.873 29.92 286.12 28.4356 286.61 27.2117C287.105 25.9825 287.81 25.045 288.727 24.3992C289.649 23.7533 290.75 23.4304 292.032 23.4304C293.313 23.4304 294.415 23.7533 295.336 24.3992C296.258 25.045 296.964 25.9825 297.454 27.2117C297.948 28.4408 298.196 29.9252 298.196 31.6648C298.196 33.4148 297.948 34.9096 297.454 36.1492C296.964 37.3835 296.258 38.3263 295.336 38.9773C294.42 39.6283 293.318 39.9539 292.032 39.9539ZM292.032 37.5085C293.032 37.5085 293.821 37.0164 294.399 36.032C294.982 35.0424 295.274 33.5867 295.274 31.6648C295.274 30.394 295.141 29.3263 294.875 28.4617C294.61 27.5971 294.235 26.946 293.75 26.5085C293.266 26.0658 292.693 25.8445 292.032 25.8445C291.037 25.8445 290.25 26.3393 289.672 27.3289C289.094 28.3132 288.803 29.7585 288.797 31.6648C288.792 32.9408 288.92 34.0138 289.18 34.8835C289.446 35.7533 289.821 36.4096 290.305 36.8523C290.79 37.2898 291.365 37.5085 292.032 37.5085ZM306.534 39.8679C305.409 39.8679 304.409 39.6752 303.534 39.2898C302.664 38.9044 301.976 38.3679 301.471 37.6804C300.966 36.9929 300.698 36.1986 300.666 35.2976H303.604C303.63 35.7299 303.773 36.1075 304.034 36.4304C304.294 36.7481 304.64 36.9955 305.073 37.1726C305.505 37.3497 305.989 37.4382 306.526 37.4382C307.099 37.4382 307.607 37.3393 308.049 37.1414C308.492 36.9382 308.838 36.657 309.088 36.2976C309.338 35.9382 309.461 35.5242 309.456 35.0554C309.461 34.571 309.336 34.144 309.081 33.7742C308.825 33.4044 308.456 33.1153 307.971 32.907C307.492 32.6986 306.914 32.5945 306.237 32.5945H304.823V30.3601H306.237C306.794 30.3601 307.281 30.2638 307.698 30.071C308.12 29.8783 308.45 29.6075 308.69 29.2585C308.93 28.9044 309.047 28.4955 309.041 28.032C309.047 27.5789 308.945 27.1856 308.737 26.8523C308.534 26.5138 308.245 26.2507 307.87 26.0632C307.5 25.8757 307.065 25.782 306.565 25.782C306.075 25.782 305.622 25.8705 305.206 26.0476C304.789 26.2247 304.453 26.4773 304.198 26.8054C303.943 27.1283 303.807 27.5138 303.791 27.9617H301.002C301.023 27.0658 301.281 26.2794 301.776 25.6023C302.276 24.92 302.943 24.3888 303.776 24.0085C304.609 23.6231 305.544 23.4304 306.581 23.4304C307.648 23.4304 308.575 23.6309 309.362 24.032C310.153 24.4278 310.765 24.9617 311.198 25.6335C311.63 26.3054 311.846 27.0476 311.846 27.8601C311.851 28.7611 311.586 29.5164 311.049 30.1257C310.518 30.7351 309.82 31.1335 308.956 31.321V31.446C310.081 31.6023 310.943 32.019 311.541 32.696C312.146 33.3679 312.445 34.2039 312.44 35.2039C312.44 36.0997 312.185 36.9018 311.674 37.6101C311.169 38.3132 310.471 38.8653 309.581 39.2664C308.695 39.6674 307.68 39.8679 306.534 39.8679Z" fill="white"/>
<path d="M373.042 39.9539C371.756 39.9539 370.652 39.6283 369.73 38.9773C368.813 38.321 368.107 37.3757 367.613 36.1414C367.123 34.9018 366.878 33.4096 366.878 31.6648C366.883 29.92 367.131 28.4356 367.62 27.2117C368.115 25.9825 368.821 25.045 369.738 24.3992C370.659 23.7533 371.761 23.4304 373.042 23.4304C374.323 23.4304 375.425 23.7533 376.347 24.3992C377.269 25.045 377.975 25.9825 378.464 27.2117C378.959 28.4408 379.206 29.9252 379.206 31.6648C379.206 33.4148 378.959 34.9096 378.464 36.1492C377.975 37.3835 377.269 38.3263 376.347 38.9773C375.43 39.6283 374.329 39.9539 373.042 39.9539ZM373.042 37.5085C374.042 37.5085 374.831 37.0164 375.409 36.032C375.993 35.0424 376.284 33.5867 376.284 31.6648C376.284 30.394 376.152 29.3263 375.886 28.4617C375.62 27.5971 375.245 26.946 374.761 26.5085C374.277 26.0658 373.704 25.8445 373.042 25.8445C372.047 25.8445 371.261 26.3393 370.683 27.3289C370.105 28.3132 369.813 29.7585 369.808 31.6648C369.803 32.9408 369.93 34.0138 370.191 34.8835C370.456 35.7533 370.831 36.4096 371.316 36.8523C371.8 37.2898 372.376 37.5085 373.042 37.5085ZM387.544 39.8679C386.419 39.8679 385.419 39.6752 384.544 39.2898C383.674 38.9044 382.987 38.3679 382.482 37.6804C381.976 36.9929 381.708 36.1986 381.677 35.2976H384.614C384.641 35.7299 384.784 36.1075 385.044 36.4304C385.305 36.7481 385.651 36.9955 386.083 37.1726C386.516 37.3497 387 37.4382 387.536 37.4382C388.109 37.4382 388.617 37.3393 389.06 37.1414C389.503 36.9382 389.849 36.657 390.099 36.2976C390.349 35.9382 390.471 35.5242 390.466 35.0554C390.471 34.571 390.346 34.144 390.091 33.7742C389.836 33.4044 389.466 33.1153 388.982 32.907C388.502 32.6986 387.924 32.5945 387.247 32.5945H385.833V30.3601H387.247C387.805 30.3601 388.292 30.2638 388.708 30.071C389.13 29.8783 389.461 29.6075 389.7 29.2585C389.94 28.9044 390.057 28.4955 390.052 28.032C390.057 27.5789 389.956 27.1856 389.747 26.8523C389.544 26.5138 389.255 26.2507 388.88 26.0632C388.51 25.8757 388.075 25.782 387.575 25.782C387.086 25.782 386.633 25.8705 386.216 26.0476C385.799 26.2247 385.463 26.4773 385.208 26.8054C384.953 27.1283 384.818 27.5138 384.802 27.9617H382.013C382.034 27.0658 382.292 26.2794 382.786 25.6023C383.286 24.92 383.953 24.3888 384.786 24.0085C385.62 23.6231 386.555 23.4304 387.591 23.4304C388.659 23.4304 389.586 23.6309 390.372 24.032C391.164 24.4278 391.776 24.9617 392.208 25.6335C392.641 26.3054 392.857 27.0476 392.857 27.8601C392.862 28.7611 392.596 29.5164 392.06 30.1257C391.529 30.7351 390.831 31.1335 389.966 31.321V31.446C391.091 31.6023 391.953 32.019 392.552 32.696C393.156 33.3679 393.456 34.2039 393.45 35.2039C393.45 36.0997 393.195 36.9018 392.685 37.6101C392.18 38.3132 391.482 38.8653 390.591 39.2664C389.706 39.6674 388.69 39.8679 387.544 39.8679ZM403.437 30.4851V32.8132H396.234V30.4851H403.437ZM412.294 39.9539C411.008 39.9539 409.904 39.6283 408.982 38.9773C408.065 38.321 407.359 37.3757 406.864 36.1414C406.375 34.9018 406.13 33.4096 406.13 31.6648C406.135 29.92 406.383 28.4356 406.872 27.2117C407.367 25.9825 408.073 25.045 408.989 24.3992C409.911 23.7533 411.013 23.4304 412.294 23.4304C413.575 23.4304 414.677 23.7533 415.599 24.3992C416.521 25.045 417.226 25.9825 417.716 27.2117C418.211 28.4408 418.458 29.9252 418.458 31.6648C418.458 33.4148 418.211 34.9096 417.716 36.1492C417.226 37.3835 416.521 38.3263 415.599 38.9773C414.682 39.6283 413.581 39.9539 412.294 39.9539ZM412.294 37.5085C413.294 37.5085 414.083 37.0164 414.661 36.032C415.245 35.0424 415.536 33.5867 415.536 31.6648C415.536 30.394 415.404 29.3263 415.138 28.4617C414.872 27.5971 414.497 26.946 414.013 26.5085C413.529 26.0658 412.956 25.8445 412.294 25.8445C411.299 25.8445 410.513 26.3393 409.935 27.3289C409.357 28.3132 409.065 29.7585 409.06 31.6648C409.055 32.9408 409.182 34.0138 409.443 34.8835C409.708 35.7533 410.083 36.4096 410.568 36.8523C411.052 37.2898 411.627 37.5085 412.294 37.5085ZM426.796 39.8679C425.671 39.8679 424.671 39.6752 423.796 39.2898C422.926 38.9044 422.239 38.3679 421.734 37.6804C421.228 36.9929 420.96 36.1986 420.929 35.2976H423.866C423.892 35.7299 424.036 36.1075 424.296 36.4304C424.557 36.7481 424.903 36.9955 425.335 37.1726C425.767 37.3497 426.252 37.4382 426.788 37.4382C427.361 37.4382 427.869 37.3393 428.312 37.1414C428.754 36.9382 429.101 36.657 429.351 36.2976C429.601 35.9382 429.723 35.5242 429.718 35.0554C429.723 34.571 429.598 34.144 429.343 33.7742C429.088 33.4044 428.718 33.1153 428.234 32.907C427.754 32.6986 427.176 32.5945 426.499 32.5945H425.085V30.3601H426.499C427.057 30.3601 427.544 30.2638 427.96 30.071C428.382 29.8783 428.713 29.6075 428.952 29.2585C429.192 28.9044 429.309 28.4955 429.304 28.032C429.309 27.5789 429.208 27.1856 428.999 26.8523C428.796 26.5138 428.507 26.2507 428.132 26.0632C427.762 25.8757 427.327 25.782 426.827 25.782C426.338 25.782 425.885 25.8705 425.468 26.0476C425.051 26.2247 424.715 26.4773 424.46 26.8054C424.205 27.1283 424.07 27.5138 424.054 27.9617H421.265C421.286 27.0658 421.544 26.2794 422.038 25.6023C422.538 24.92 423.205 24.3888 424.038 24.0085C424.872 23.6231 425.807 23.4304 426.843 23.4304C427.911 23.4304 428.838 23.6309 429.624 24.032C430.416 24.4278 431.028 24.9617 431.46 25.6335C431.892 26.3054 432.109 27.0476 432.109 27.8601C432.114 28.7611 431.848 29.5164 431.312 30.1257C430.78 30.7351 430.083 31.1335 429.218 31.321V31.446C430.343 31.6023 431.205 32.019 431.804 32.696C432.408 33.3679 432.708 34.2039 432.702 35.2039C432.702 36.0997 432.447 36.9018 431.937 37.6101C431.432 38.3132 430.734 38.8653 429.843 39.2664C428.958 39.6674 427.942 39.8679 426.796 39.8679Z" fill="#120F1C"/>
<path d="M66.4931 128.117C66.4368 127.59 66.1993 127.179 65.7807 126.886C65.3662 126.592 64.8269 126.445 64.1628 126.445C63.696 126.445 63.2955 126.515 62.9615 126.656C62.6275 126.797 62.3719 126.988 62.1948 127.23C62.0177 127.471 61.9272 127.747 61.9231 128.057C61.9231 128.314 61.9815 128.538 62.0982 128.727C62.219 128.916 62.3819 129.077 62.5872 129.21C62.7925 129.339 63.0199 129.447 63.2694 129.536C63.5189 129.624 63.7704 129.699 64.024 129.759L65.1831 130.049C65.6499 130.158 66.0987 130.305 66.5293 130.49C66.964 130.675 67.3524 130.908 67.6944 131.19C68.0406 131.472 68.3142 131.812 68.5155 132.21C68.7167 132.609 68.8173 133.076 68.8173 133.611C68.8173 134.335 68.6322 134.973 68.2619 135.525C67.8917 136.072 67.3564 136.5 66.6561 136.81C65.9598 137.116 65.1167 137.269 64.1266 137.269C63.1647 137.269 62.3296 137.12 61.6213 136.822C60.917 136.525 60.3656 136.09 59.9672 135.518C59.5728 134.947 59.3595 134.251 59.3273 133.43H61.5307C61.5629 133.86 61.6958 134.219 61.9292 134.504C62.1626 134.79 62.4665 135.003 62.8408 135.144C63.2191 135.285 63.6417 135.355 64.1085 135.355C64.5955 135.355 65.0221 135.283 65.3883 135.138C65.7586 134.989 66.0484 134.784 66.2577 134.522C66.4669 134.257 66.5736 133.947 66.5776 133.593C66.5736 133.271 66.479 133.005 66.2939 132.796C66.1087 132.583 65.8492 132.405 65.5151 132.265C65.1851 132.12 64.7987 131.991 64.356 131.878L62.9494 131.516C61.9312 131.254 61.1263 130.858 60.5346 130.327C59.9471 129.791 59.6533 129.081 59.6533 128.196C59.6533 127.467 59.8505 126.829 60.2449 126.282C60.6433 125.735 61.1846 125.31 61.8688 125.008C62.553 124.702 63.3277 124.549 64.193 124.549C65.0704 124.549 65.8391 124.702 66.4991 125.008C67.1632 125.31 67.6844 125.731 68.0627 126.27C68.441 126.805 68.6362 127.421 68.6483 128.117H66.4931ZM76.6276 133.182V127.809H78.813V137.082H76.694V135.434H76.5974C76.3881 135.953 76.044 136.378 75.5651 136.708C75.0902 137.038 74.5046 137.203 73.8084 137.203C73.2006 137.203 72.6633 137.068 72.1965 136.798C71.7337 136.525 71.3714 136.128 71.1098 135.609C70.8482 135.086 70.7174 134.454 70.7174 133.713V127.809H72.9028V133.375C72.9028 133.963 73.0638 134.43 73.3858 134.776C73.7077 135.122 74.1303 135.295 74.6535 135.295C74.9755 135.295 75.2874 135.217 75.5892 135.06C75.8911 134.903 76.1386 134.669 76.3318 134.359C76.529 134.045 76.6276 133.653 76.6276 133.182ZM81.1568 137.082V124.718H83.3422V129.343H83.4327C83.5454 129.117 83.7044 128.878 83.9096 128.624C84.1149 128.367 84.3926 128.147 84.7427 127.966C85.0929 127.781 85.5396 127.689 86.0829 127.689C86.7993 127.689 87.4453 127.872 88.0208 128.238C88.6003 128.6 89.0592 129.137 89.3972 129.85C89.7393 130.558 89.9104 131.427 89.9104 132.458C89.9104 133.476 89.7433 134.341 89.4093 135.054C89.0753 135.766 88.6205 136.309 88.0449 136.684C87.4694 137.058 86.8174 137.245 86.089 137.245C85.5577 137.245 85.117 137.156 84.7669 136.979C84.4168 136.802 84.135 136.589 83.9217 136.339C83.7124 136.086 83.5494 135.846 83.4327 135.621H83.306V137.082H81.1568ZM83.2999 132.446C83.2999 133.045 83.3844 133.571 83.5535 134.021C83.7265 134.472 83.974 134.824 84.296 135.078C84.622 135.327 85.0164 135.452 85.4793 135.452C85.9622 135.452 86.3667 135.323 86.6927 135.066C87.0187 134.804 87.2642 134.448 87.4292 133.997C87.5982 133.542 87.6827 133.025 87.6827 132.446C87.6827 131.87 87.6002 131.359 87.4352 130.912C87.2702 130.466 87.0247 130.115 86.6987 129.862C86.3727 129.608 85.9662 129.482 85.4793 129.482C85.0124 129.482 84.616 129.604 84.29 129.85C83.964 130.095 83.7165 130.439 83.5474 130.882C83.3824 131.325 83.2999 131.846 83.2999 132.446ZM99.0971 130.26L97.1049 130.478C97.0485 130.276 96.9499 130.087 96.8091 129.91C96.6722 129.733 96.4871 129.59 96.2537 129.482C96.0202 129.373 95.7345 129.319 95.3964 129.319C94.9416 129.319 94.5593 129.417 94.2494 129.614C93.9435 129.812 93.7926 130.067 93.7966 130.381C93.7926 130.651 93.8912 130.87 94.0924 131.039C94.2977 131.208 94.6358 131.347 95.1066 131.456L96.6883 131.794C97.5657 131.983 98.2177 132.283 98.6443 132.693C99.0749 133.104 99.2923 133.641 99.2963 134.305C99.2923 134.889 99.1212 135.404 98.7831 135.85C98.4491 136.293 97.9843 136.639 97.3886 136.889C96.793 137.138 96.1088 137.263 95.3361 137.263C94.2011 137.263 93.2875 137.026 92.5953 136.551C91.903 136.072 91.4905 135.406 91.3577 134.553L93.4888 134.347C93.5853 134.766 93.7906 135.082 94.1045 135.295C94.4184 135.508 94.8269 135.615 95.33 135.615C95.8492 135.615 96.2657 135.508 96.5797 135.295C96.8976 135.082 97.0566 134.818 97.0566 134.504C97.0566 134.239 96.9539 134.019 96.7487 133.846C96.5475 133.673 96.2335 133.54 95.8069 133.448L94.2253 133.116C93.3358 132.931 92.6778 132.619 92.2512 132.18C91.8246 131.737 91.6133 131.178 91.6173 130.502C91.6133 129.93 91.7682 129.435 92.0821 129.017C92.4001 128.594 92.8408 128.268 93.4042 128.039C93.9717 127.805 94.6257 127.689 95.3662 127.689C96.4529 127.689 97.3081 127.92 97.9319 128.383C98.5598 128.846 98.9481 129.471 99.0971 130.26ZM105.143 137.263C104.217 137.263 103.423 137.06 102.758 136.653C102.098 136.247 101.589 135.685 101.231 134.969C100.877 134.249 100.7 133.42 100.7 132.482C100.7 131.54 100.881 130.709 101.243 129.989C101.605 129.264 102.117 128.701 102.777 128.298C103.441 127.892 104.225 127.689 105.131 127.689C105.884 127.689 106.55 127.827 107.129 128.105C107.713 128.379 108.178 128.767 108.524 129.27C108.87 129.769 109.067 130.353 109.115 131.021H107.027C106.942 130.574 106.741 130.202 106.423 129.904C106.109 129.602 105.688 129.451 105.161 129.451C104.714 129.451 104.322 129.572 103.984 129.814C103.646 130.051 103.382 130.393 103.193 130.84C103.008 131.287 102.915 131.822 102.915 132.446C102.915 133.078 103.008 133.621 103.193 134.076C103.378 134.526 103.638 134.875 103.972 135.12C104.31 135.362 104.706 135.482 105.161 135.482C105.483 135.482 105.771 135.422 106.024 135.301C106.282 135.176 106.497 134.997 106.67 134.764C106.843 134.53 106.962 134.247 107.027 133.913H109.115C109.063 134.569 108.87 135.15 108.536 135.657C108.202 136.16 107.747 136.555 107.171 136.841C106.596 137.122 105.92 137.263 105.143 137.263ZM110.91 137.082V127.809H113.029V129.355H113.125C113.294 128.819 113.584 128.407 113.995 128.117C114.409 127.823 114.882 127.676 115.413 127.676C115.534 127.676 115.669 127.683 115.818 127.695C115.971 127.703 116.098 127.717 116.198 127.737V129.747C116.106 129.715 115.959 129.687 115.757 129.663C115.56 129.634 115.369 129.62 115.184 129.62C114.786 129.62 114.427 129.707 114.109 129.88C113.795 130.049 113.548 130.284 113.367 130.586C113.186 130.888 113.095 131.236 113.095 131.631V137.082H110.91ZM117.65 137.082V127.809H119.835V137.082H117.65ZM118.749 126.493C118.403 126.493 118.105 126.379 117.855 126.149C117.606 125.916 117.481 125.636 117.481 125.31C117.481 124.98 117.606 124.7 117.855 124.471C118.105 124.237 118.403 124.121 118.749 124.121C119.099 124.121 119.397 124.237 119.642 124.471C119.892 124.7 120.017 124.98 120.017 125.31C120.017 125.636 119.892 125.916 119.642 126.149C119.397 126.379 119.099 126.493 118.749 126.493ZM122.179 137.082V124.718H124.365V129.343H124.455C124.568 129.117 124.727 128.878 124.932 128.624C125.137 128.367 125.415 128.147 125.765 127.966C126.115 127.781 126.562 127.689 127.105 127.689C127.822 127.689 128.468 127.872 129.043 128.238C129.623 128.6 130.082 129.137 130.42 129.85C130.762 130.558 130.933 131.427 130.933 132.458C130.933 133.476 130.766 134.341 130.432 135.054C130.098 135.766 129.643 136.309 129.067 136.684C128.492 137.058 127.84 137.245 127.111 137.245C126.58 137.245 126.139 137.156 125.789 136.979C125.439 136.802 125.157 136.589 124.944 136.339C124.735 136.086 124.572 135.846 124.455 135.621H124.328V137.082H122.179ZM124.322 132.446C124.322 133.045 124.407 133.571 124.576 134.021C124.749 134.472 124.997 134.824 125.318 135.078C125.644 135.327 126.039 135.452 126.502 135.452C126.985 135.452 127.389 135.323 127.715 135.066C128.041 134.804 128.287 134.448 128.452 133.997C128.621 133.542 128.705 133.025 128.705 132.446C128.705 131.87 128.623 131.359 128.458 130.912C128.293 130.466 128.047 130.115 127.721 129.862C127.395 129.608 126.989 129.482 126.502 129.482C126.035 129.482 125.638 129.604 125.312 129.85C124.986 130.095 124.739 130.439 124.57 130.882C124.405 131.325 124.322 131.846 124.322 132.446ZM136.896 137.263C135.966 137.263 135.163 137.07 134.487 136.684C133.815 136.293 133.298 135.742 132.936 135.029C132.573 134.313 132.392 133.47 132.392 132.5C132.392 131.546 132.573 130.709 132.936 129.989C133.302 129.264 133.813 128.701 134.469 128.298C135.125 127.892 135.896 127.689 136.781 127.689C137.353 127.689 137.892 127.781 138.399 127.966C138.91 128.147 139.361 128.429 139.751 128.811C140.146 129.194 140.456 129.681 140.681 130.272C140.906 130.86 141.019 131.56 141.019 132.373V133.043H133.419V131.57H138.924C138.92 131.152 138.83 130.779 138.653 130.453C138.475 130.123 138.228 129.864 137.91 129.675C137.596 129.486 137.23 129.391 136.811 129.391C136.365 129.391 135.972 129.5 135.634 129.717C135.296 129.93 135.032 130.212 134.843 130.562C134.658 130.908 134.564 131.289 134.56 131.703V132.989C134.56 133.528 134.658 133.991 134.855 134.377C135.053 134.76 135.328 135.054 135.682 135.259C136.037 135.46 136.451 135.561 136.926 135.561C137.244 135.561 137.532 135.516 137.789 135.428C138.047 135.335 138.27 135.201 138.459 135.023C138.649 134.846 138.791 134.627 138.888 134.365L140.928 134.595C140.8 135.134 140.554 135.605 140.192 136.007C139.834 136.406 139.375 136.716 138.816 136.937C138.256 137.154 137.616 137.263 136.896 137.263ZM151.781 127.809V129.5H146.3V127.809H151.781ZM147.67 137.082V126.934C147.67 126.31 147.799 125.791 148.057 125.376C148.318 124.962 148.668 124.652 149.107 124.447C149.546 124.241 150.033 124.139 150.568 124.139C150.946 124.139 151.282 124.169 151.576 124.229C151.87 124.29 152.087 124.344 152.228 124.392L151.793 126.083C151.701 126.055 151.584 126.026 151.443 125.998C151.302 125.966 151.145 125.95 150.972 125.95C150.566 125.95 150.278 126.049 150.109 126.246C149.944 126.439 149.862 126.717 149.862 127.079V137.082H147.67ZM157.189 137.263C156.283 137.263 155.499 137.064 154.835 136.665C154.17 136.267 153.655 135.71 153.289 134.993C152.927 134.277 152.746 133.44 152.746 132.482C152.746 131.524 152.927 130.685 153.289 129.964C153.655 129.244 154.17 128.685 154.835 128.286C155.499 127.888 156.283 127.689 157.189 127.689C158.094 127.689 158.879 127.888 159.543 128.286C160.207 128.685 160.721 129.244 161.083 129.964C161.449 130.685 161.632 131.524 161.632 132.482C161.632 133.44 161.449 134.277 161.083 134.993C160.721 135.71 160.207 136.267 159.543 136.665C158.879 137.064 158.094 137.263 157.189 137.263ZM157.201 135.512C157.692 135.512 158.103 135.378 158.433 135.108C158.763 134.834 159.008 134.468 159.169 134.009C159.334 133.55 159.417 133.039 159.417 132.476C159.417 131.908 159.334 131.395 159.169 130.936C159.008 130.474 158.763 130.105 158.433 129.832C158.103 129.558 157.692 129.421 157.201 129.421C156.698 129.421 156.279 129.558 155.945 129.832C155.615 130.105 155.368 130.474 155.203 130.936C155.042 131.395 154.961 131.908 154.961 132.476C154.961 133.039 155.042 133.55 155.203 134.009C155.368 134.468 155.615 134.834 155.945 135.108C156.279 135.378 156.698 135.512 157.201 135.512ZM163.487 137.082V127.809H165.606V129.355H165.703C165.872 128.819 166.161 128.407 166.572 128.117C166.986 127.823 167.459 127.676 167.991 127.676C168.111 127.676 168.246 127.683 168.395 127.695C168.548 127.703 168.675 127.717 168.775 127.737V129.747C168.683 129.715 168.536 129.687 168.335 129.663C168.137 129.634 167.946 129.62 167.761 129.62C167.363 129.62 167.004 129.707 166.687 129.88C166.373 130.049 166.125 130.284 165.944 130.586C165.763 130.888 165.672 131.236 165.672 131.631V137.082H163.487ZM50.4379 146.718V159.082H48.1982V148.898H48.1257L45.234 150.745V148.692L48.3068 146.718H50.4379ZM57.818 159.082V149.809H59.9068V151.385H60.0155C60.2087 150.854 60.5286 150.439 60.9753 150.141C61.4221 149.839 61.9553 149.689 62.5751 149.689C63.203 149.689 63.7322 149.842 64.1628 150.147C64.5975 150.449 64.9034 150.862 65.0805 151.385H65.177C65.3823 150.87 65.7284 150.459 66.2154 150.153C66.7064 149.844 67.288 149.689 67.9601 149.689C68.8133 149.689 69.5096 149.958 70.0489 150.498C70.5882 151.037 70.8578 151.824 70.8578 152.858V159.082H68.6664V153.196C68.6664 152.621 68.5135 152.2 68.2076 151.934C67.9017 151.665 67.5274 151.53 67.0847 151.53C66.5575 151.53 66.145 151.695 65.8471 152.025C65.5534 152.351 65.4065 152.775 65.4065 153.299V159.082H63.2633V153.105C63.2633 152.627 63.1185 152.244 62.8287 151.958C62.5429 151.673 62.1686 151.53 61.7058 151.53C61.3919 151.53 61.1061 151.61 60.8486 151.771C60.591 151.928 60.3857 152.152 60.2328 152.441C60.0799 152.727 60.0034 153.061 60.0034 153.444V159.082H57.818ZM77.1196 159.263C76.2141 159.263 75.4293 159.064 74.7652 158.665C74.1011 158.267 73.586 157.71 73.2198 156.993C72.8575 156.277 72.6764 155.44 72.6764 154.482C72.6764 153.524 72.8575 152.685 73.2198 151.964C73.586 151.244 74.1011 150.685 74.7652 150.286C75.4293 149.888 76.2141 149.689 77.1196 149.689C78.0251 149.689 78.81 149.888 79.474 150.286C80.1381 150.685 80.6512 151.244 81.0134 151.964C81.3797 152.685 81.5628 153.524 81.5628 154.482C81.5628 155.44 81.3797 156.277 81.0134 156.993C80.6512 157.71 80.1381 158.267 79.474 158.665C78.81 159.064 78.0251 159.263 77.1196 159.263ZM77.1317 157.512C77.6227 157.512 78.0332 157.378 78.3632 157.108C78.6932 156.834 78.9387 156.468 79.0997 156.009C79.2647 155.55 79.3472 155.039 79.3472 154.476C79.3472 153.908 79.2647 153.395 79.0997 152.936C78.9387 152.474 78.6932 152.105 78.3632 151.832C78.0332 151.558 77.6227 151.421 77.1317 151.421C76.6286 151.421 76.21 151.558 75.876 151.832C75.546 152.105 75.2985 152.474 75.1335 152.936C74.9725 153.395 74.892 153.908 74.892 154.476C74.892 155.039 74.9725 155.55 75.1335 156.009C75.2985 156.468 75.546 156.834 75.876 157.108C76.21 157.378 76.6286 157.512 77.1317 157.512ZM85.603 153.649V159.082H83.4176V149.809H85.5064V151.385H85.6151C85.8284 150.866 86.1685 150.453 86.6353 150.147C87.1062 149.842 87.6878 149.689 88.38 149.689C89.0199 149.689 89.5773 149.825 90.0522 150.099C90.5312 150.373 90.9014 150.769 91.163 151.288C91.4286 151.808 91.5594 152.437 91.5554 153.178V159.082H89.3701V153.516C89.3701 152.896 89.2091 152.411 88.8871 152.061C88.5692 151.711 88.1285 151.536 87.565 151.536C87.1827 151.536 86.8426 151.62 86.5448 151.789C86.251 151.954 86.0196 152.194 85.8505 152.508C85.6855 152.822 85.603 153.202 85.603 153.649ZM98.4073 149.809V151.5H93.0767V149.809H98.4073ZM94.3928 147.588H96.5782V156.293C96.5782 156.587 96.6224 156.812 96.711 156.969C96.8035 157.122 96.9243 157.227 97.0732 157.283C97.2221 157.339 97.3871 157.368 97.5682 157.368C97.705 157.368 97.8298 157.357 97.9425 157.337C98.0592 157.317 98.1478 157.299 98.2081 157.283L98.5764 158.991C98.4597 159.032 98.2926 159.076 98.0753 159.124C97.862 159.173 97.6004 159.201 97.2905 159.209C96.7432 159.225 96.2501 159.142 95.8115 158.961C95.3728 158.776 95.0246 158.49 94.7671 158.104C94.5135 157.718 94.3888 157.235 94.3928 156.655V147.588ZM102.62 153.649V159.082H100.434V146.718H102.571V151.385H102.68C102.897 150.862 103.233 150.449 103.688 150.147C104.147 149.842 104.731 149.689 105.439 149.689C106.083 149.689 106.644 149.823 107.123 150.093C107.602 150.363 107.972 150.757 108.234 151.276C108.5 151.795 108.632 152.429 108.632 153.178V159.082H106.447V153.516C106.447 152.892 106.286 152.407 105.964 152.061C105.646 151.711 105.199 151.536 104.624 151.536C104.238 151.536 103.891 151.62 103.586 151.789C103.284 151.954 103.046 152.194 102.873 152.508C102.704 152.822 102.62 153.202 102.62 153.649ZM119.122 159.263C118.216 159.263 117.431 159.064 116.767 158.665C116.103 158.267 115.588 157.71 115.222 156.993C114.859 156.277 114.678 155.44 114.678 154.482C114.678 153.524 114.859 152.685 115.222 151.964C115.588 151.244 116.103 150.685 116.767 150.286C117.431 149.888 118.216 149.689 119.122 149.689C120.027 149.689 120.812 149.888 121.476 150.286C122.14 150.685 122.653 151.244 123.015 151.964C123.382 152.685 123.565 153.524 123.565 154.482C123.565 155.44 123.382 156.277 123.015 156.993C122.653 157.71 122.14 158.267 121.476 158.665C120.812 159.064 120.027 159.263 119.122 159.263ZM119.134 157.512C119.625 157.512 120.035 157.378 120.365 157.108C120.695 156.834 120.941 156.468 121.102 156.009C121.267 155.55 121.349 155.039 121.349 154.476C121.349 153.908 121.267 153.395 121.102 152.936C120.941 152.474 120.695 152.105 120.365 151.832C120.035 151.558 119.625 151.421 119.134 151.421C118.631 151.421 118.212 151.558 117.878 151.832C117.548 152.105 117.3 152.474 117.135 152.936C116.974 153.395 116.894 153.908 116.894 154.476C116.894 155.039 116.974 155.55 117.135 156.009C117.3 156.468 117.548 156.834 117.878 157.108C118.212 157.378 118.631 157.512 119.134 157.512ZM125.42 159.082V149.809H127.539V151.355H127.635C127.804 150.819 128.094 150.407 128.504 150.117C128.919 149.823 129.392 149.676 129.923 149.676C130.044 149.676 130.179 149.683 130.328 149.695C130.481 149.703 130.607 149.717 130.708 149.737V151.747C130.615 151.715 130.468 151.687 130.267 151.663C130.07 151.634 129.879 151.62 129.694 151.62C129.295 151.62 128.937 151.707 128.619 151.88C128.305 152.049 128.058 152.284 127.877 152.586C127.696 152.888 127.605 153.236 127.605 153.631V159.082H125.42ZM141.381 146.718V159.082H139.142V148.898H139.069L136.177 150.745V148.692L139.25 146.718H141.381ZM150.12 162.559C149.822 162.559 149.546 162.535 149.293 162.487C149.043 162.443 148.844 162.39 148.695 162.33L149.202 160.627C149.52 160.72 149.804 160.764 150.053 160.76C150.303 160.756 150.522 160.678 150.711 160.525C150.904 160.376 151.067 160.126 151.2 159.776L151.387 159.275L148.025 149.809H150.343L152.48 156.812H152.577L154.72 149.809H157.044L153.331 160.205C153.158 160.696 152.929 161.116 152.643 161.467C152.357 161.821 152.007 162.09 151.593 162.276C151.182 162.465 150.691 162.559 150.12 162.559ZM162.346 159.263C161.416 159.263 160.613 159.07 159.937 158.684C159.265 158.293 158.748 157.742 158.386 157.029C158.024 156.313 157.842 155.47 157.842 154.5C157.842 153.546 158.024 152.709 158.386 151.989C158.752 151.264 159.263 150.701 159.919 150.298C160.575 149.892 161.346 149.689 162.231 149.689C162.803 149.689 163.342 149.781 163.849 149.966C164.36 150.147 164.811 150.429 165.201 150.811C165.596 151.194 165.906 151.681 166.131 152.272C166.357 152.86 166.469 153.56 166.469 154.373V155.043H158.869V153.57H164.374C164.37 153.152 164.28 152.779 164.103 152.453C163.926 152.123 163.678 151.864 163.36 151.675C163.046 151.486 162.68 151.391 162.261 151.391C161.815 151.391 161.422 151.5 161.084 151.717C160.746 151.93 160.483 152.212 160.293 152.562C160.108 152.908 160.014 153.289 160.01 153.703V154.989C160.01 155.528 160.108 155.991 160.306 156.377C160.503 156.76 160.778 157.054 161.133 157.259C161.487 157.46 161.901 157.561 162.376 157.561C162.694 157.561 162.982 157.516 163.239 157.428C163.497 157.335 163.72 157.201 163.91 157.023C164.099 156.846 164.242 156.627 164.338 156.365L166.379 156.595C166.25 157.134 166.004 157.605 165.642 158.007C165.284 158.406 164.825 158.716 164.266 158.937C163.706 159.154 163.066 159.263 162.346 159.263ZM170.986 159.269C170.399 159.269 169.87 159.165 169.399 158.955C168.932 158.742 168.562 158.428 168.288 158.013C168.018 157.599 167.883 157.088 167.883 156.48C167.883 155.957 167.98 155.524 168.173 155.182C168.366 154.84 168.63 154.566 168.964 154.361C169.298 154.156 169.674 154.001 170.093 153.896C170.515 153.788 170.952 153.709 171.403 153.661C171.946 153.605 172.387 153.554 172.725 153.51C173.063 153.462 173.309 153.389 173.461 153.293C173.618 153.192 173.697 153.037 173.697 152.828V152.792C173.697 152.337 173.562 151.985 173.292 151.735C173.023 151.486 172.634 151.361 172.127 151.361C171.592 151.361 171.167 151.478 170.854 151.711C170.544 151.944 170.334 152.22 170.226 152.538L168.185 152.248C168.346 151.685 168.612 151.214 168.982 150.836C169.352 150.453 169.805 150.167 170.34 149.978C170.876 149.785 171.467 149.689 172.115 149.689C172.562 149.689 173.007 149.741 173.449 149.846C173.892 149.95 174.297 150.123 174.663 150.365C175.029 150.602 175.323 150.926 175.544 151.337C175.77 151.747 175.882 152.26 175.882 152.876V159.082H173.781V157.808H173.709C173.576 158.066 173.389 158.307 173.148 158.533C172.91 158.754 172.61 158.933 172.248 159.07C171.89 159.203 171.469 159.269 170.986 159.269ZM171.554 157.663C171.993 157.663 172.373 157.577 172.695 157.404C173.017 157.227 173.264 156.993 173.437 156.703C173.614 156.414 173.703 156.098 173.703 155.756V154.663C173.635 154.719 173.518 154.772 173.353 154.82C173.192 154.868 173.011 154.911 172.81 154.947C172.608 154.983 172.409 155.015 172.212 155.043C172.015 155.071 171.844 155.096 171.699 155.116C171.373 155.16 171.081 155.232 170.823 155.333C170.566 155.434 170.363 155.575 170.214 155.756C170.065 155.933 169.99 156.162 169.99 156.444C169.99 156.846 170.137 157.15 170.431 157.355C170.725 157.561 171.099 157.663 171.554 157.663ZM178.08 159.082V149.809H180.199V151.355H180.295C180.464 150.819 180.754 150.407 181.165 150.117C181.579 149.823 182.052 149.676 182.583 149.676C182.704 149.676 182.839 149.683 182.988 149.695C183.141 149.703 183.267 149.717 183.368 149.737V151.747C183.276 151.715 183.129 151.687 182.927 151.663C182.73 151.634 182.539 151.62 182.354 151.62C181.955 151.62 181.597 151.707 181.279 151.88C180.965 152.049 180.718 152.284 180.537 152.586C180.356 152.888 180.265 153.236 180.265 153.631V159.082H178.08ZM185.104 159.215C184.737 159.215 184.424 159.086 184.162 158.828C183.9 158.571 183.772 158.257 183.776 157.887C183.772 157.525 183.9 157.215 184.162 156.957C184.424 156.699 184.737 156.571 185.104 156.571C185.458 156.571 185.766 156.699 186.027 156.957C186.293 157.215 186.428 157.525 186.432 157.887C186.428 158.132 186.363 158.356 186.239 158.557C186.118 158.758 185.957 158.919 185.756 159.04C185.559 159.156 185.341 159.215 185.104 159.215Z" fill="#F3F3F3"/>
<defs>
<filter id="filter0_d_1_861" x="0.53125" y="0.600586" width="238.813" height="271" filterUnits="userSpaceOnUse" color-interpolation-filters="sRGB">
<feFlood flood-opacity="0" result="BackgroundImageFix"/>
<feColorMatrix in="SourceAlpha" type="matrix" values="0 0 0 0 0 0 0 0 0 0 0 0 0 0 0 0 0 0 127 0" result="hardAlpha"/>
<feOffset dx="4" dy="4"/>
<feGaussianBlur stdDeviation="5"/>
<feComposite in2="hardAlpha" operator="out"/>
<feColorMatrix type="matrix" values="0 0 0 0 0.0798958 0 0 0 0 0.108333 0 0 0 0 0.0984896 0 0 0 0.15 0"/>
<feBlend mode="normal" in2="BackgroundImageFix" result="effect1_dropShadow_1_861"/>
<feBlend mode="normal" in="SourceGraphic" in2="effect1_dropShadow_1_861" result="shape"/>
</filter>
</defs>
</svg>
