<svg width="51" height="51" viewBox="0 0 51 51" fill="none" xmlns="http://www.w3.org/2000/svg">
<circle opacity="0.2" cx="25.1182" cy="25.4849" r="25" fill="white"/>
<path d="M27.4945 13.4851C27.676 13.4851 27.8527 13.5427 27.9994 13.6496C28.146 13.7565 28.255 13.9072 28.3105 14.08L29.2533 17.0097C29.6493 17.2034 30.0282 17.4211 30.3899 17.6663L33.4002 17.0183C33.5777 16.9804 33.7626 16.9998 33.9284 17.0737C34.0941 17.1477 34.2321 17.2723 34.3225 17.4297L36.6985 21.5422C36.7892 21.6995 36.8277 21.8816 36.8082 22.0621C36.7888 22.2427 36.7126 22.4124 36.5905 22.5468L34.5248 24.8268C34.5549 25.264 34.5549 25.7028 34.5248 26.14L36.5905 28.4234C36.7126 28.5578 36.7888 28.7275 36.8082 28.9081C36.8277 29.0886 36.7892 29.2707 36.6985 29.428L34.3225 33.5422C34.2319 33.6993 34.0938 33.8236 33.928 33.8972C33.7623 33.9708 33.5775 33.99 33.4002 33.952L30.3899 33.304C30.0299 33.5474 29.6493 33.7668 29.2551 33.9605L28.3105 36.8903C28.255 37.063 28.146 37.2137 27.9994 37.3206C27.8527 37.4275 27.676 37.4851 27.4945 37.4851H22.7425C22.561 37.4851 22.3842 37.4275 22.2376 37.3206C22.0909 37.2137 21.982 37.063 21.9265 36.8903L20.9853 33.9622C20.5904 33.7691 20.2095 33.5486 19.8453 33.3023L16.8368 33.952C16.6593 33.9899 16.4744 33.9704 16.3086 33.8965C16.1429 33.8226 16.0049 33.6979 15.9145 33.5405L13.5385 29.428C13.4478 29.2707 13.4093 29.0886 13.4287 28.9081C13.4482 28.7275 13.5244 28.5578 13.6465 28.4234L15.7122 26.14C15.6823 25.7039 15.6823 25.2663 15.7122 24.8303L13.6465 22.5468C13.5244 22.4124 13.4482 22.2427 13.4287 22.0621C13.4093 21.8816 13.4478 21.6995 13.5385 21.5422L15.9145 17.428C16.0051 17.2709 16.1432 17.1466 16.3089 17.073C16.4747 16.9994 16.6595 16.9802 16.8368 17.0183L19.8453 17.668C20.2088 17.4228 20.5893 17.2017 20.9853 17.008L21.9282 14.08C21.9836 13.9078 22.092 13.7575 22.2379 13.6506C22.3839 13.5438 22.5599 13.4858 22.7408 13.4851H27.4928H27.4945ZM26.8671 15.1994H23.3699L22.3962 18.2285L21.7396 18.5491C21.4169 18.7071 21.1053 18.8869 20.8071 19.0874L20.2002 19.4988L17.0871 18.8268L15.3385 21.8577L17.4728 24.22L17.4213 24.9468C17.3967 25.3053 17.3967 25.665 17.4213 26.0234L17.4728 26.7502L15.3351 29.1125L17.0853 32.1434L20.1985 31.4731L20.8053 31.8828C21.1036 32.0833 21.4151 32.2632 21.7379 32.4211L22.3945 32.7417L23.3699 35.7708H26.8705L27.8476 32.74L28.5025 32.4211C28.8249 32.2635 29.1359 32.0837 29.4333 31.8828L30.0385 31.4731L33.1533 32.1434L34.9019 29.1125L32.7659 26.7502L32.8173 26.0234C32.8421 25.6644 32.8421 25.3041 32.8173 24.9451L32.7659 24.2183L34.9036 21.8577L33.1533 18.8268L30.0385 19.4954L29.4333 19.0874C29.136 18.8865 28.8249 18.7066 28.5025 18.5491L27.8476 18.2303L26.8688 15.1994H26.8671ZM25.1185 20.3423C26.4825 20.3423 27.7906 20.8841 28.755 21.8486C29.7195 22.813 30.2613 24.1211 30.2613 25.4851C30.2613 26.8491 29.7195 28.1572 28.755 29.1217C27.7906 30.0861 26.4825 30.628 25.1185 30.628C23.7545 30.628 22.4464 30.0861 21.4819 29.1217C20.5175 28.1572 19.9756 26.8491 19.9756 25.4851C19.9756 24.1211 20.5175 22.813 21.4819 21.8486C22.4464 20.8841 23.7545 20.3423 25.1185 20.3423ZM25.1185 22.0565C24.2092 22.0565 23.3371 22.4178 22.6941 23.0607C22.0511 23.7037 21.6899 24.5758 21.6899 25.4851C21.6899 26.3944 22.0511 27.2665 22.6941 27.9095C23.3371 28.5525 24.2092 28.9137 25.1185 28.9137C26.0278 28.9137 26.8999 28.5525 27.5429 27.9095C28.1858 27.2665 28.5471 26.3944 28.5471 25.4851C28.5471 24.5758 28.1858 23.7037 27.5429 23.0607C26.8999 22.4178 26.0278 22.0565 25.1185 22.0565Z" fill="white"/>
</svg>
