<svg width="159" height="54" viewBox="0 0 159 54" fill="none" xmlns="http://www.w3.org/2000/svg">
<path d="M6.57758 35.3643C5.63384 35.0471 5.00769 35.385 4.8999 35.7846C4.81244 36.1552 4.46192 38.0692 4.06645 40.0164C3.66789 42.0911 3.40253 42.3152 3.12479 43.049C2.83843 43.7335 3.69891 45.4611 4.32748 45.4274C5.00531 45.385 5.51694 45.1178 6.74352 43.279C7.91653 41.4242 9.5114 38.3536 9.89062 38.4903C9.33084 39.9333 10.0421 43.5651 11.3079 43.5467C12.5736 43.5284 13.3907 42.3957 14.5502 40.8986C15.7139 39.4261 15.8273 38.1881 15.1414 38.7649C14.4684 39.4155 12.9212 40.7267 12.3154 41.0356C11.7095 41.3446 11.5928 39.0809 11.9556 37.6723C12.3023 36.3174 11.7299 35.6561 10.658 35.7674C9.6108 35.8744 7.51534 39.5656 5.77471 41.3673C6.35814 37.7376 7.10014 36.4657 7.21344 36.2429C7.33845 35.9419 6.98143 35.4967 6.57758 35.3643ZM18.3717 35.0529C17.9303 34.8509 16.8788 34.9333 17.7788 35.4357C17.9149 35.4881 18.006 35.5737 18.1014 35.6839L17.8434 35.8051C16.9913 36.1572 15.8817 38.2293 15.3805 39.2814C14.8792 40.3335 15.257 42.3485 16.9137 42.3887C18.5747 42.4536 20.7832 40.5699 20.9761 38.4805C21.1691 36.391 18.8217 35.3041 18.3717 35.0529ZM17.5549 39.8148C17.5857 39.5556 18.2827 38.317 18.8849 37.5518C18.971 38.0444 18.9544 38.5295 18.8207 38.7813C18.4691 39.528 17.5573 40.1189 17.5549 39.8148ZM21.6501 32.8807C21.2351 33.4101 21.6124 33.8263 21.64 34.7097C21.6676 35.5932 20.7898 40.4419 22.24 41.9141C23.6454 43.4195 24.9146 40.2281 26.3578 38.7575C26.3288 39.7524 27.228 41.7016 28.1884 41.5337C29.4198 41.3183 31.512 38.7698 32.3273 36.9014C33.0977 35.0663 33.183 32.3611 32.6407 31.8723C32.0694 31.3631 31.7742 34.0288 30.4559 36.2135C29.9897 37.0311 29.0354 37.9593 28.6413 38.0282C28.498 37.0635 28.5744 36.3395 28.5794 35.9326C28.6072 34.7856 27.991 34.3097 27.4715 34.096C26.7826 33.785 25.3951 37.6062 24.1618 39.1162C23.9723 38.0326 24.1098 36.2067 24.3317 34.1375C24.5739 32.0394 23.7993 32.8347 23.1498 32.3138C22.4801 31.8218 22.2319 32.1444 21.6501 32.8807ZM49.3956 32.1907C48.6487 32.8543 45.1817 35.6686 44.502 35.9905C43.8223 36.3124 44.905 32.9253 45.2677 32.5319C45.6882 32.1792 45.8563 32.1244 45.812 31.7261C45.817 31.3191 44.6714 30.4282 44.2035 30.51C44.0064 30.5445 43.8341 30.5746 43.3113 31.5035C42.7842 32.4079 42.1325 35.2121 42.2419 36.5634C42.3643 37.9886 43.4754 38.6826 44.3639 38.248C45.2609 37.8628 49.1325 33.7341 49.8203 32.8778C50.5038 31.9969 50.1671 31.5228 49.3956 32.1907ZM45.9269 28.6097C46.2649 28.2207 46.6823 27.9954 46.3222 27.6777C45.9375 27.3643 45.4752 26.6076 45.0695 26.7547C44.9463 26.7762 44.0782 27.1818 43.6854 27.4028C43.3376 27.5905 43.7604 28.5571 44.1796 29.0675C44.5539 29.6112 45.5888 28.9988 45.9269 28.6097ZM56.7649 19.3289C56.6393 19.0463 55.2948 18.4693 54.6534 18.4292C54.0451 18.4341 53.2606 20.0433 51.782 23.7788C51.3835 24.8383 50.9223 26.2641 50.4911 27.8622C49.8305 28.0032 49.3177 28.1182 49.1207 28.1527C48.2963 28.373 48.369 28.208 47.8007 28.5866C47.2035 28.9448 47.8842 30.8053 48.7085 30.585C48.9794 30.5377 49.3648 30.4195 49.8691 30.2552C49.0456 33.6731 48.2553 37.1361 48.0292 38.1654C47.5587 39.9735 47.6114 41.4363 48.2535 42.06C48.8912 42.6591 49.4294 42.1081 49.5581 41.2481C49.6869 40.3881 49.6403 38.6704 51.879 31.2995C52.0829 30.5787 52.3083 29.9809 52.5047 29.3628C53.2873 29.0483 54.0581 28.812 54.6072 28.6144C56.2345 28.0507 56.8564 26.6729 56.8755 26.4919C56.9149 26.282 56.6022 26.2352 55.036 26.7121C54.581 26.8678 53.945 27.0044 53.2438 27.2032C54.7828 22.7972 55.9718 20.8889 56.4164 19.9482C56.5414 19.6472 56.8412 19.6201 56.7649 19.3289ZM61.5713 19.5035C61.5658 19.3268 61.4372 19.1717 61.226 18.9802C60.6923 18.5406 59.634 18.2942 59.1581 18.9104C58.8853 19.2373 59.1223 19.5765 59.2768 19.8794L59.3648 20.0924C59.571 20.6909 59.7537 21.4457 59.5197 21.9942C59.1275 22.7988 58.7643 22.6085 58.6294 22.7082C58.0999 23.3084 58.7752 23.9771 59.4678 23.7291C59.804 23.6195 61.3876 22.2259 61.549 20.8272C61.6224 20.2306 61.6476 19.7947 61.5713 19.5035ZM69.1122 27.499C68.5932 27.869 67.9682 28.3589 67.3722 28.8692C67.2732 28.3028 67.2609 27.7974 67.3687 27.3978C67.5874 26.4713 68.0024 25.9419 68.618 25.8342C68.8397 25.7955 68.9136 25.7826 69.0152 25.6379C69.1703 25.5093 69.0466 24.9472 68.6182 24.8191C68.1651 24.6953 66.5557 24.9259 65.7836 26.0254C65.2756 26.7487 64.8174 28.0471 65.5308 29.3689C65.6521 29.6269 65.8183 29.8516 65.9395 30.1096C65.0954 30.9425 64.5135 31.6787 64.2475 32.3343C63.9494 33.0971 64.0016 33.9762 64.2331 34.1388C64.4602 34.2767 64.7219 34.6117 65.0272 34.7613C65.7419 35.22 66.8876 35.0958 67.6333 34.2802C68.4239 33.4313 68.4579 32.0295 67.9169 30.6774C67.8086 30.4934 67.7741 30.2963 67.715 30.1036C68.9625 28.8195 70.8114 27.2018 71.6943 26.5906C72.3119 26.2034 70.7838 26.3184 69.1122 27.499ZM66.7592 32.9102C66.6699 33.5604 66.1219 33.91 65.7279 33.9789C65.5875 33.9019 65.4921 33.7917 65.446 33.6729C65.3986 33.402 65.2448 32.6675 66.3081 31.4918L66.414 31.3717C66.6042 32.0237 66.8134 32.4947 66.7592 32.9102ZM86.8407 28.3324C87.174 26.3199 87.3608 24.4853 87.3442 23.9552C87.2631 23.0558 86.0336 22.9916 85.5805 22.8678C85.4445 22.8155 85.3718 22.9805 85.3958 23.4077C84.9413 24.147 83.7683 26.0018 82.8522 26.5681C80.8401 27.8337 82.648 24.675 82.9559 24.1136C83.1782 23.6432 83.438 23.2425 82.7965 23.2024C82.3896 23.1974 82.139 23.2159 81.3676 23.8838C80.4656 24.676 79.452 26.4268 79.3553 27.1797C79.2461 28.4424 81.0407 29.2706 82.0682 28.761C83.1001 28.276 84.0071 27.0768 85.3721 25.5945C85.3086 26.3923 85.2328 27.7 84.9118 29.2027C79.3757 31.7952 76.2054 34.7099 75.8924 36.6935C75.5209 39.068 77.2175 40.4971 78.5159 39.94C80.294 39.223 84.126 37.3347 85.7838 32.8825C86.1256 31.9345 86.4157 30.6909 86.6639 29.3531L87.4089 28.9691C88.796 28.1935 89.0128 27.5465 88.1681 27.7957L86.8407 28.3324ZM83.9246 32.7001C82.6757 35.8625 78.7839 37.9897 77.8118 38.2359C76.8151 38.4863 77.3386 36.1106 79.9086 33.6816C81.3937 32.3052 83.1318 31.2144 84.642 30.4173C84.4714 31.1832 84.2226 31.9373 83.9246 32.7001ZM91.7214 22.2253C91.28 22.0233 90.2285 22.1057 91.1285 22.6082C91.2646 22.6605 91.3557 22.7461 91.4511 22.8563L91.1931 22.9776C90.341 23.3296 89.2314 25.4018 88.7301 26.4538C88.2289 27.5059 88.6067 29.521 90.2634 29.5612C91.9244 29.626 94.1329 27.7424 94.3258 25.6529C94.5188 23.5634 92.1714 22.4766 91.7214 22.2253ZM90.9045 26.9872C90.9353 26.7281 91.6324 25.4895 92.2346 24.7243C92.3207 25.2168 92.304 25.7019 92.1704 25.9537C91.8188 26.7005 90.907 27.2914 90.9045 26.9872ZM98.1918 20.8907C97.7922 20.783 97.2825 20.7706 96.7204 20.8943C96.1336 21.0223 96.0524 21.138 95.8079 21.9168C95.5591 22.6709 94.3779 26.0753 94.5293 26.5056C94.685 26.9606 95.3109 28.6531 96.6093 28.0961C97.8832 27.5434 98.4282 26.306 99.6017 25.0348C99.5468 25.8819 99.5159 27.1563 100.152 27.6033C100.769 28.0793 101.139 28.1668 101.486 27.827C101.857 27.4829 101.458 26.9435 101.648 25.9967C101.772 25.112 102.939 21.9133 103.234 21.2779C103.525 20.618 101.96 20.2318 101.503 20.2355C101.072 20.2348 100.944 20.2317 100.757 20.899C100.276 22.5058 97.8126 25.3984 97.2788 25.974C96.745 26.5496 97.7956 23.2695 98.2766 22.2464C98.7864 21.2436 98.4349 20.9751 98.1918 20.8907ZM111.24 20.7661C110.923 19.6795 111.244 18.1767 110.431 18.3189C109.963 18.4007 109.074 19.2668 108.21 20.1286C108.776 18.4307 107.778 19.1127 107.368 18.6516C106.899 18.1498 106.622 18.452 105.933 19.1562C105.465 19.6696 105.702 20.0089 105.499 20.8818C105.317 21.7259 103.334 26.2094 104.221 27.6532C104.613 28.2953 105.146 28.1513 105.771 27.6613C107.311 26.453 106.599 25.8668 106.908 24.4423C106.989 23.7429 107.197 23.0466 107.535 22.074C107.964 21.7705 108.373 21.496 108.528 21.3673C108.998 21.006 109.496 21.0965 109.538 21.7744C109.531 22.4608 110.729 22.6321 111.172 22.5546C111.64 22.4727 111.565 21.902 111.24 20.7661ZM128.215 6.83361C128.089 6.55101 126.745 5.974 126.103 5.93391C125.495 5.93876 124.71 7.54797 123.232 11.2835C122.833 12.343 122.372 13.7688 121.941 15.3669C121.28 15.5079 120.767 15.6229 120.57 15.6574C119.746 15.8777 119.819 15.7127 119.25 16.0913C118.653 16.4495 119.334 18.31 120.158 18.0897C120.429 18.0424 120.815 17.9242 121.319 17.7599C120.495 21.1778 119.705 24.6408 119.479 25.6701C119.008 27.4782 119.061 28.941 119.703 29.5647C120.341 30.1638 120.879 29.6128 121.008 28.7528C121.137 27.8927 121.09 26.1751 123.329 18.8042C123.533 18.0834 123.758 17.4856 123.955 16.8675C124.737 16.553 125.508 16.3167 126.057 16.1191C127.684 15.5554 128.306 14.1776 128.325 13.9966C128.365 13.7867 128.052 13.7399 126.486 14.2168C126.031 14.3725 125.395 14.5091 124.694 14.7079C126.233 10.3019 127.422 8.39356 127.866 7.4529C127.991 7.15187 128.291 7.12481 128.215 6.83361ZM129.311 15.4485C128.912 15.3407 128.402 15.3283 127.84 15.452C127.253 15.58 127.172 15.6957 126.927 16.4745C126.679 17.2286 125.497 20.633 125.649 21.0634C125.804 21.5183 126.43 23.2108 127.729 22.6538C129.003 22.1011 129.548 20.8637 130.721 19.5926C130.666 20.4397 130.635 21.7141 131.272 22.1611C131.888 22.6371 132.259 22.7245 132.605 22.3847C132.977 22.0406 132.578 21.5013 132.768 20.5544C132.892 19.6698 134.058 16.471 134.353 15.8357C134.644 15.1758 133.079 14.7896 132.623 14.7932C132.191 14.7925 132.064 14.7895 131.876 15.4568C131.396 17.0636 128.932 19.9562 128.398 20.5318C127.864 21.1073 128.915 17.8273 129.396 16.8042C129.906 15.8013 129.554 15.5329 129.311 15.4485ZM142.359 15.3239C142.042 14.2372 142.363 12.7345 141.551 12.8766C141.083 12.9584 140.194 13.8245 139.329 14.6863C139.895 12.9885 138.898 13.6705 138.487 13.2093C138.019 12.7075 137.742 13.0098 137.053 13.714C136.584 14.2274 136.821 14.5666 136.618 15.4396C136.436 16.2836 134.454 20.7671 135.341 22.2109C135.732 22.8531 136.265 22.7091 136.89 22.2191C138.43 21.0108 137.719 20.4246 138.028 19C138.109 18.3006 138.317 17.6044 138.654 16.6317C139.083 16.3282 139.492 16.0537 139.647 15.9251C140.117 15.5637 140.615 15.6543 140.658 16.3321C140.651 17.0186 141.848 17.1898 142.291 17.1123C142.759 17.0305 142.685 16.4598 142.359 15.3239ZM147.193 10.7732C146.249 10.4561 145.623 10.794 145.515 11.1935C145.427 11.5641 145.077 13.4781 144.681 15.4254C144.283 17.5 144.017 17.7241 143.74 18.4579C143.453 19.1425 144.314 20.8701 144.942 20.8363C145.62 20.7939 146.132 20.5268 147.358 18.688C148.531 16.8332 150.126 13.7625 150.506 13.8992C149.946 15.3422 150.657 18.974 151.923 18.9557C153.189 18.9374 154.006 17.8047 155.165 16.3076C156.329 14.8351 156.442 13.597 155.756 14.1738C155.083 14.8245 153.536 16.1356 152.93 16.4446C152.324 16.7536 152.208 14.4898 152.571 13.0813C152.917 11.7263 152.345 11.065 151.273 11.1763C150.226 11.2833 148.13 14.9745 146.39 16.7763C146.973 13.1465 147.715 11.8747 147.828 11.6518C147.953 11.3508 147.596 10.9056 147.193 10.7732Z" fill="#989898" fill-opacity="0.7"/>
</svg>
