<svg width="275" height="252" viewBox="0 0 275 252" fill="none" xmlns="http://www.w3.org/2000/svg">
<path d="M20.7324 251H254.392C265.437 251 274.392 242.046 274.392 231V177.957C274.392 173.301 272.767 168.79 269.798 165.204L255.911 148.43C249.633 140.846 249.808 129.822 256.323 122.441L269.386 107.641C272.612 103.987 274.392 99.2802 274.392 94.4059V21C274.392 9.9543 265.437 1 254.392 1H183.214C178.494 1 173.926 2.6696 170.318 5.71341L148.043 24.5053C144.435 27.5491 139.867 29.2187 135.147 29.2187H20.7324C9.68673 29.2187 0.732422 38.173 0.732422 49.2187V231C0.732422 242.046 9.68672 251 20.7324 251Z" fill="#B4CEC5" stroke="white"/>
</svg>
