<svg width="51" height="51" viewBox="0 0 51 51" fill="none" xmlns="http://www.w3.org/2000/svg">
<g clip-path="url(#clip0_190_32)">
<path d="M30.4072 21.5786C30.4072 21.3714 30.4895 21.1727 30.636 21.0262C30.7826 20.8797 30.9813 20.7974 31.1885 20.7974H34.3135C34.5207 20.7974 34.7194 20.8797 34.8659 21.0262C35.0124 21.1727 35.0947 21.3714 35.0947 21.5786V23.1411C35.0947 23.3483 35.0124 23.547 34.8659 23.6935C34.7194 23.8401 34.5207 23.9224 34.3135 23.9224H31.1885C30.9813 23.9224 30.7826 23.8401 30.636 23.6935C30.4895 23.547 30.4072 23.3483 30.4072 23.1411V21.5786Z" fill="white"/>
<path d="M16.3447 16.1099C15.5159 16.1099 14.7211 16.4391 14.135 17.0252C13.549 17.6112 13.2197 18.4061 13.2197 19.2349V31.7349C13.2197 32.5637 13.549 33.3585 14.135 33.9446C14.7211 34.5306 15.5159 34.8599 16.3447 34.8599H35.0947C35.9235 34.8599 36.7184 34.5306 37.3044 33.9446C37.8905 33.3585 38.2197 32.5637 38.2197 31.7349V19.2349C38.2197 18.4061 37.8905 17.6112 37.3044 17.0252C36.7184 16.4391 35.9235 16.1099 35.0947 16.1099H16.3447ZM36.6572 19.2349V27.0474H14.7822V19.2349C14.7822 18.8205 14.9468 18.423 15.2399 18.13C15.5329 17.837 15.9303 17.6724 16.3447 17.6724H35.0947C35.5091 17.6724 35.9066 17.837 36.1996 18.13C36.4926 18.423 36.6572 18.8205 36.6572 19.2349ZM35.0947 33.2974H16.3447C15.9303 33.2974 15.5329 33.1327 15.2399 32.8397C14.9468 32.5467 14.7822 32.1493 14.7822 31.7349V30.1724H36.6572V31.7349C36.6572 32.1493 36.4926 32.5467 36.1996 32.8397C35.9066 33.1327 35.5091 33.2974 35.0947 33.2974Z" fill="white"/>
</g>
<circle opacity="0.2" cx="25.7197" cy="25.4849" r="25" fill="white"/>
<defs>
<clipPath id="clip0_190_32">
<rect width="25" height="25" fill="white" transform="translate(13.2197 12.9849)"/>
</clipPath>
</defs>
</svg>
