<svg width="212" height="252" viewBox="0 0 212 252" fill="none" xmlns="http://www.w3.org/2000/svg">
<path d="M21.25 251H190.521C201.567 251 210.521 242.046 210.521 231V177.129C210.521 172.981 209.232 168.936 206.831 165.554L194.432 148.084C189.537 141.187 189.509 131.957 194.363 125.031L206.901 107.137C209.257 103.774 210.521 99.7671 210.521 95.6604V21C210.521 9.9543 201.567 1 190.521 1H128.545C123.51 1 118.659 2.89954 114.963 6.31926L95.961 23.8994C92.2647 27.3192 87.4145 29.2187 82.3789 29.2187H21.25C10.2043 29.2187 1.25 38.173 1.25 49.2187V231C1.25 242.046 10.2043 251 21.25 251Z" fill="#76C1A7" stroke="white"/>
</svg>
