<svg width="330" height="252" viewBox="0 0 330 252" fill="none" xmlns="http://www.w3.org/2000/svg">
<path d="M20.75 251H309.5C320.546 251 329.5 242.046 329.5 231V176.74C329.5 172.834 328.356 169.014 326.21 165.751L312.865 145.459C308.162 138.308 308.531 128.956 313.782 122.198L325.293 107.385C328.02 103.875 329.5 99.5574 329.5 95.113V21C329.5 9.9543 320.546 1 309.5 1H211.41C207.241 1 203.176 2.30276 199.784 4.72618L170.716 25.4925C167.324 27.9159 163.259 29.2187 159.09 29.2187H20.75C9.70431 29.2187 0.75 38.173 0.75 49.2187V231C0.75 242.046 9.7043 251 20.75 251Z" fill="#CEFFEE" stroke="white"/>
</svg>
